<mxfile host="app.diagrams.net" modified="2023-09-23T23:06:36.654Z" agent="Mozilla/5.0 (Windows NT 10.0; Win64; x64) AppleWebKit/537.36 (KHTML, like Gecko) Chrome/117.0.0.0 Safari/537.36" etag="6TUPn4LdCoiVCpUks_ec" version="21.8.0" type="device">
  <diagram id="7q6WzZqFf9v9yzIv_zda" name="Use case">
    <mxGraphModel dx="2074" dy="981" grid="1" gridSize="10" guides="1" tooltips="1" connect="1" arrows="1" fold="1" page="1" pageScale="1" pageWidth="850" pageHeight="1100" background="#ffffff" math="0" shadow="0">
      <root>
        <mxCell id="0" />
        <mxCell id="1" parent="0" />
        <mxCell id="SSoZlEEdxV4zL4xD8buy-2" value="Customer" style="shape=umlActor;verticalLabelPosition=bottom;verticalAlign=top;html=1;outlineConnect=0;fillColor=#FFFFFF;" parent="1" vertex="1">
          <mxGeometry x="140" y="50" width="30" height="60" as="geometry" />
        </mxCell>
        <mxCell id="SSoZlEEdxV4zL4xD8buy-3" value="" style="endArrow=none;html=1;entryX=0;entryY=0.5;entryDx=0;entryDy=0;" parent="1" source="SSoZlEEdxV4zL4xD8buy-2" target="SSoZlEEdxV4zL4xD8buy-4" edge="1">
          <mxGeometry width="50" height="50" relative="1" as="geometry">
            <mxPoint x="40" y="112" as="sourcePoint" />
            <mxPoint x="130" y="112" as="targetPoint" />
          </mxGeometry>
        </mxCell>
        <mxCell id="SSoZlEEdxV4zL4xD8buy-4" value="Upload File" style="ellipse;whiteSpace=wrap;html=1;fillColor=#FFFFFF;" parent="1" vertex="1">
          <mxGeometry x="260" y="40" width="120" height="80" as="geometry" />
        </mxCell>
        <mxCell id="EGgrtP7-PYZIOP3BgwKZ-12" value="Vulcanator" style="shape=umlActor;verticalLabelPosition=bottom;verticalAlign=top;html=1;outlineConnect=0;fillColor=#1A1A1A;" parent="1" vertex="1">
          <mxGeometry x="740" y="60" width="30" height="60" as="geometry" />
        </mxCell>
        <mxCell id="EGgrtP7-PYZIOP3BgwKZ-13" value="Script Kiddies" style="ellipse;whiteSpace=wrap;html=1;fillColor=#1A1A1A;fontColor=#FFFFFF;" parent="1" vertex="1">
          <mxGeometry x="530" y="320" width="120" height="80" as="geometry" />
        </mxCell>
        <mxCell id="EGgrtP7-PYZIOP3BgwKZ-17" value="Encryption" style="ellipse;whiteSpace=wrap;html=1;fillColor=#FFFFFF;" parent="1" vertex="1">
          <mxGeometry x="260" y="181" width="120" height="80" as="geometry" />
        </mxCell>
        <mxCell id="EGgrtP7-PYZIOP3BgwKZ-18" value="&amp;lt;&amp;lt;includes&amp;gt;&amp;gt;" style="html=1;verticalAlign=bottom;endArrow=open;dashed=1;endSize=8;curved=0;rounded=0;entryX=0.5;entryY=0;entryDx=0;entryDy=0;fontColor=#FF9933;exitX=0.5;exitY=1;exitDx=0;exitDy=0;" parent="1" source="SSoZlEEdxV4zL4xD8buy-4" target="EGgrtP7-PYZIOP3BgwKZ-17" edge="1">
          <mxGeometry relative="1" as="geometry">
            <mxPoint x="240" y="90" as="sourcePoint" />
            <mxPoint x="590" y="330" as="targetPoint" />
          </mxGeometry>
        </mxCell>
        <mxCell id="EGgrtP7-PYZIOP3BgwKZ-21" value="HTTPS Website" style="ellipse;whiteSpace=wrap;html=1;fillColor=#FFFFFF;" parent="1" vertex="1">
          <mxGeometry x="260" y="320" width="120" height="80" as="geometry" />
        </mxCell>
        <mxCell id="EGgrtP7-PYZIOP3BgwKZ-22" value="&amp;lt;&amp;lt;includes&amp;gt;&amp;gt;" style="html=1;verticalAlign=bottom;endArrow=open;dashed=1;endSize=8;curved=0;rounded=0;exitX=0.5;exitY=1;exitDx=0;exitDy=0;entryX=0.5;entryY=0;entryDx=0;entryDy=0;fontColor=#FF9933;fontStyle=0" parent="1" target="EGgrtP7-PYZIOP3BgwKZ-21" edge="1" source="EGgrtP7-PYZIOP3BgwKZ-17">
          <mxGeometry relative="1" as="geometry">
            <mxPoint x="385" y="130" as="sourcePoint" />
            <mxPoint x="335" y="100" as="targetPoint" />
          </mxGeometry>
        </mxCell>
        <mxCell id="EGgrtP7-PYZIOP3BgwKZ-23" value="Man in the Middle Attack" style="ellipse;whiteSpace=wrap;html=1;fillColor=#1A1A1A;fontColor=#FFFFFF;" parent="1" vertex="1">
          <mxGeometry x="530" y="181" width="120" height="80" as="geometry" />
        </mxCell>
        <mxCell id="EGgrtP7-PYZIOP3BgwKZ-24" value="prevents" style="html=1;verticalAlign=bottom;endArrow=open;dashed=1;endSize=8;curved=0;rounded=0;exitX=1;exitY=0.5;exitDx=0;exitDy=0;entryX=0;entryY=0.5;entryDx=0;entryDy=0;fontColor=#00CC66;fontStyle=0" parent="1" source="EGgrtP7-PYZIOP3BgwKZ-17" target="EGgrtP7-PYZIOP3BgwKZ-23" edge="1">
          <mxGeometry relative="1" as="geometry">
            <mxPoint x="395" y="140" as="sourcePoint" />
            <mxPoint x="395" y="210" as="targetPoint" />
          </mxGeometry>
        </mxCell>
        <mxCell id="EGgrtP7-PYZIOP3BgwKZ-25" value="threatens" style="html=1;verticalAlign=bottom;endArrow=open;dashed=1;endSize=8;curved=0;rounded=0;exitX=0.194;exitY=0.148;exitDx=0;exitDy=0;entryX=1;entryY=0.5;entryDx=0;entryDy=0;fontColor=#FF0000;fontStyle=0;exitPerimeter=0;" parent="1" source="EGgrtP7-PYZIOP3BgwKZ-23" target="SSoZlEEdxV4zL4xD8buy-4" edge="1">
          <mxGeometry relative="1" as="geometry">
            <mxPoint x="405" y="150" as="sourcePoint" />
            <mxPoint x="433.48" y="115.27999999999997" as="targetPoint" />
          </mxGeometry>
        </mxCell>
        <mxCell id="EGgrtP7-PYZIOP3BgwKZ-30" value="Nextcloud - File upload Misuse case" style="text;html=1;align=center;verticalAlign=middle;resizable=0;points=[];autosize=1;strokeColor=none;fillColor=none;fontStyle=1;fontSize=14;" parent="1" vertex="1">
          <mxGeometry x="10" y="10" width="260" height="30" as="geometry" />
        </mxCell>
        <mxCell id="9pojK9ZYNXiW30SJmVLu-3" value="Detects" style="html=1;verticalAlign=bottom;endArrow=open;dashed=1;endSize=8;curved=0;rounded=0;exitX=0.5;exitY=0;exitDx=0;exitDy=0;fontColor=#FF9933;fontStyle=0;entryX=0.5;entryY=1;entryDx=0;entryDy=0;" parent="1" source="9pojK9ZYNXiW30SJmVLu-7" target="EGgrtP7-PYZIOP3BgwKZ-21" edge="1">
          <mxGeometry x="0.0038" relative="1" as="geometry">
            <mxPoint x="200" y="559" as="sourcePoint" />
            <mxPoint x="280" y="420" as="targetPoint" />
            <mxPoint as="offset" />
          </mxGeometry>
        </mxCell>
        <mxCell id="9pojK9ZYNXiW30SJmVLu-5" value="Botnets/DDOS" style="ellipse;whiteSpace=wrap;html=1;fillColor=#1A1A1A;fontColor=#FFFFFF;" parent="1" vertex="1">
          <mxGeometry x="530" y="460" width="120" height="80" as="geometry" />
        </mxCell>
        <mxCell id="9pojK9ZYNXiW30SJmVLu-7" value="Packet Sniffers" style="ellipse;whiteSpace=wrap;html=1;fillColor=#FFFFFF;" parent="1" vertex="1">
          <mxGeometry x="260" y="460" width="120" height="80" as="geometry" />
        </mxCell>
        <mxCell id="9pojK9ZYNXiW30SJmVLu-9" value="Detects" style="html=1;verticalAlign=bottom;endArrow=open;dashed=1;endSize=8;curved=0;rounded=0;fontColor=#00CC66;fontStyle=0;entryX=0;entryY=0.5;entryDx=0;entryDy=0;exitX=1;exitY=0.5;exitDx=0;exitDy=0;" parent="1" source="BHQtuhGBkiGhtb0f2eE0-6" target="9pojK9ZYNXiW30SJmVLu-5" edge="1">
          <mxGeometry x="0.0004" relative="1" as="geometry">
            <mxPoint x="460" y="481" as="sourcePoint" />
            <mxPoint x="520" y="481" as="targetPoint" />
            <mxPoint as="offset" />
          </mxGeometry>
        </mxCell>
        <mxCell id="BHQtuhGBkiGhtb0f2eE0-4" value="" style="endArrow=none;html=1;exitX=1;exitY=0.5;exitDx=0;exitDy=0;" parent="1" source="Y1a-zcBHLSkURZJUUoCX-1" target="EGgrtP7-PYZIOP3BgwKZ-12" edge="1">
          <mxGeometry width="50" height="50" relative="1" as="geometry">
            <mxPoint x="597" y="116" as="sourcePoint" />
            <mxPoint x="750" y="131" as="targetPoint" />
          </mxGeometry>
        </mxCell>
        <mxCell id="BHQtuhGBkiGhtb0f2eE0-6" value="Public Key" style="ellipse;whiteSpace=wrap;html=1;fillColor=#FFFFFF;" parent="1" vertex="1">
          <mxGeometry x="260" y="620" width="120" height="80" as="geometry" />
        </mxCell>
        <mxCell id="BHQtuhGBkiGhtb0f2eE0-7" value="includes" style="html=1;verticalAlign=bottom;endArrow=open;dashed=1;endSize=8;curved=0;rounded=0;exitX=0.5;exitY=1;exitDx=0;exitDy=0;entryX=0.5;entryY=0;entryDx=0;entryDy=0;fontColor=#FF9933;fontStyle=0" parent="1" source="Y1a-zcBHLSkURZJUUoCX-1" target="EGgrtP7-PYZIOP3BgwKZ-23" edge="1">
          <mxGeometry relative="1" as="geometry">
            <mxPoint x="395" y="140" as="sourcePoint" />
            <mxPoint x="385" y="0.9999999999998863" as="targetPoint" />
          </mxGeometry>
        </mxCell>
        <mxCell id="BHQtuhGBkiGhtb0f2eE0-10" value="threatens" style="html=1;verticalAlign=bottom;endArrow=open;dashed=1;endSize=8;curved=0;rounded=0;exitX=0;exitY=0;exitDx=0;exitDy=0;entryX=1;entryY=1;entryDx=0;entryDy=0;fontColor=#FF0000;fontStyle=0;" parent="1" source="EGgrtP7-PYZIOP3BgwKZ-13" target="EGgrtP7-PYZIOP3BgwKZ-21" edge="1">
          <mxGeometry relative="1" as="geometry">
            <mxPoint x="590" y="441" as="sourcePoint" />
            <mxPoint x="445" y="356" as="targetPoint" />
          </mxGeometry>
        </mxCell>
        <mxCell id="BHQtuhGBkiGhtb0f2eE0-12" value="Prevents" style="html=1;verticalAlign=bottom;endArrow=open;dashed=1;endSize=8;curved=0;rounded=0;entryX=0.5;entryY=1;entryDx=0;entryDy=0;fontColor=#FF9933;fontStyle=0;exitX=0.5;exitY=0;exitDx=0;exitDy=0;" parent="1" source="BHQtuhGBkiGhtb0f2eE0-6" target="9pojK9ZYNXiW30SJmVLu-7" edge="1">
          <mxGeometry relative="1" as="geometry">
            <mxPoint x="370" y="600" as="sourcePoint" />
            <mxPoint x="294.5" y="760" as="targetPoint" />
          </mxGeometry>
        </mxCell>
        <mxCell id="BHQtuhGBkiGhtb0f2eE0-13" value="prevents" style="html=1;verticalAlign=bottom;endArrow=open;dashed=1;endSize=8;curved=0;rounded=0;fontColor=#00CC66;fontStyle=0;entryX=0;entryY=0.5;entryDx=0;entryDy=0;exitX=1;exitY=0.5;exitDx=0;exitDy=0;" parent="1" source="9pojK9ZYNXiW30SJmVLu-7" target="EGgrtP7-PYZIOP3BgwKZ-13" edge="1">
          <mxGeometry relative="1" as="geometry">
            <mxPoint x="430" y="446" as="sourcePoint" />
            <mxPoint x="535" y="351" as="targetPoint" />
          </mxGeometry>
        </mxCell>
        <mxCell id="Y1a-zcBHLSkURZJUUoCX-1" value="Collect Private files" style="ellipse;whiteSpace=wrap;html=1;fillColor=#1A1A1A;fontColor=#FFFFFF;" parent="1" vertex="1">
          <mxGeometry x="530" y="50" width="120" height="80" as="geometry" />
        </mxCell>
        <mxCell id="Y1a-zcBHLSkURZJUUoCX-4" value="&amp;lt;&amp;lt;includes&amp;gt;&amp;gt;" style="html=1;verticalAlign=bottom;endArrow=open;dashed=1;endSize=8;curved=0;rounded=0;entryX=0.5;entryY=0;entryDx=0;entryDy=0;fontColor=#FF9933;fontStyle=0;exitX=0.5;exitY=1;exitDx=0;exitDy=0;" parent="1" source="EGgrtP7-PYZIOP3BgwKZ-23" target="EGgrtP7-PYZIOP3BgwKZ-13" edge="1">
          <mxGeometry relative="1" as="geometry">
            <mxPoint x="590" y="271" as="sourcePoint" />
            <mxPoint x="590" y="301" as="targetPoint" />
          </mxGeometry>
        </mxCell>
        <mxCell id="Y1a-zcBHLSkURZJUUoCX-6" value="&amp;lt;&amp;lt;includes&amp;gt;&amp;gt;" style="html=1;verticalAlign=bottom;endArrow=open;dashed=1;endSize=8;curved=0;rounded=0;fontColor=#FF9933;fontStyle=0;exitX=0.5;exitY=1;exitDx=0;exitDy=0;entryX=0.5;entryY=0;entryDx=0;entryDy=0;" parent="1" source="EGgrtP7-PYZIOP3BgwKZ-13" target="9pojK9ZYNXiW30SJmVLu-5" edge="1">
          <mxGeometry relative="1" as="geometry">
            <mxPoint x="590" y="401" as="sourcePoint" />
            <mxPoint x="590" y="441" as="targetPoint" />
            <mxPoint as="offset" />
          </mxGeometry>
        </mxCell>
        <mxCell id="dsfw5GXESORkeWYqsDKk-1" value="Capture and Download customer&#39;s information" style="ellipse;whiteSpace=wrap;html=1;fillColor=#1A1A1A;fontColor=#FFFFFF;" vertex="1" parent="1">
          <mxGeometry x="530" y="620" width="120" height="80" as="geometry" />
        </mxCell>
        <mxCell id="dsfw5GXESORkeWYqsDKk-3" value="Validate Customer Information" style="ellipse;whiteSpace=wrap;html=1;fillColor=#FFFFFF;" vertex="1" parent="1">
          <mxGeometry x="440" y="750" width="120" height="80" as="geometry" />
        </mxCell>
        <mxCell id="dsfw5GXESORkeWYqsDKk-4" value="Private Key" style="ellipse;whiteSpace=wrap;html=1;fillColor=#FFFFFF;" vertex="1" parent="1">
          <mxGeometry x="240" y="750" width="120" height="80" as="geometry" />
        </mxCell>
        <mxCell id="dsfw5GXESORkeWYqsDKk-5" value="Detects" style="html=1;verticalAlign=bottom;endArrow=open;dashed=1;endSize=8;curved=0;rounded=0;entryX=0;entryY=0.5;entryDx=0;entryDy=0;fontColor=#FF9933;fontStyle=0;exitX=1;exitY=0.5;exitDx=0;exitDy=0;" edge="1" parent="1" source="dsfw5GXESORkeWYqsDKk-4" target="dsfw5GXESORkeWYqsDKk-3">
          <mxGeometry relative="1" as="geometry">
            <mxPoint x="330" y="550" as="sourcePoint" />
            <mxPoint x="330" y="620" as="targetPoint" />
          </mxGeometry>
        </mxCell>
        <mxCell id="dsfw5GXESORkeWYqsDKk-6" value="Remediate" style="html=1;verticalAlign=bottom;endArrow=open;dashed=1;endSize=8;curved=0;rounded=0;fontColor=#00CC66;fontStyle=0;entryX=0.5;entryY=1;entryDx=0;entryDy=0;exitX=0.837;exitY=0.145;exitDx=0;exitDy=0;exitPerimeter=0;" edge="1" parent="1" source="dsfw5GXESORkeWYqsDKk-3" target="dsfw5GXESORkeWYqsDKk-1">
          <mxGeometry relative="1" as="geometry">
            <mxPoint x="510" y="750" as="sourcePoint" />
            <mxPoint x="660" y="600" as="targetPoint" />
          </mxGeometry>
        </mxCell>
        <mxCell id="dsfw5GXESORkeWYqsDKk-7" value="Prevents" style="html=1;verticalAlign=bottom;endArrow=open;dashed=1;endSize=8;curved=0;rounded=0;entryX=0.5;entryY=1;entryDx=0;entryDy=0;fontColor=#FF9933;fontStyle=0;exitX=0.5;exitY=0;exitDx=0;exitDy=0;" edge="1" parent="1" source="dsfw5GXESORkeWYqsDKk-4" target="BHQtuhGBkiGhtb0f2eE0-6">
          <mxGeometry relative="1" as="geometry">
            <mxPoint x="370" y="800" as="sourcePoint" />
            <mxPoint x="450" y="800" as="targetPoint" />
          </mxGeometry>
        </mxCell>
        <mxCell id="dsfw5GXESORkeWYqsDKk-8" value="threatens" style="html=1;verticalAlign=bottom;endArrow=open;dashed=1;endSize=8;curved=0;rounded=0;entryX=0.5;entryY=0;entryDx=0;entryDy=0;fontColor=#FF0000;fontStyle=0;" edge="1" parent="1" target="dsfw5GXESORkeWYqsDKk-1">
          <mxGeometry relative="1" as="geometry">
            <mxPoint x="590" y="540" as="sourcePoint" />
            <mxPoint x="372" y="398" as="targetPoint" />
          </mxGeometry>
        </mxCell>
      </root>
    </mxGraphModel>
  </diagram>
</mxfile>
